<svg xmlns="http://www.w3.org/2000/svg" xmlns:xlink="http://www.w3.org/1999/xlink" version="1.1" x="0px" y="0px" viewBox="0 0 308 100.5" style="enable-background:new 0 0 308 100.5;" xml:space="preserve">
<style type="text/css">
	.st0{fill:#000000;}
</style>
<g id="Layer_1">
</g>
<g id="Layer_2">
	<g>
		<path class="st0" d="M72.87,16.36c1.13-0.99,1.69-2.36,1.69-4.1c0-1.66-0.56-3.01-1.67-4.06c-1.11-1.05-2.62-1.57-4.53-1.57h-4.94    v11.21h4.63C70.14,17.85,71.75,17.36,72.87,16.36z M66.22,15.8V8.7h1.79c1.19,0,2.1,0.32,2.73,0.95c0.63,0.63,0.95,1.5,0.95,2.6    c0,1.06-0.31,1.92-0.94,2.57c-0.63,0.65-1.53,0.98-2.71,0.98H66.22z" fill="#000000"/>
		<path class="st0" d="M80.37,18c1.34,0,2.47-0.33,3.38-1v-1.5c-0.98,0.72-1.92,1.08-2.81,1.08c-0.74,0-1.33-0.19-1.77-0.56    c-0.44-0.37-0.68-0.9-0.73-1.59h5.44c0.05-1.32-0.3-2.37-1.05-3.15c-0.75-0.78-1.7-1.18-2.87-1.18c-1.16,0-2.12,0.37-2.86,1.12    c-0.75,0.74-1.12,1.7-1.12,2.85c0,1.18,0.4,2.12,1.2,2.84C77.97,17.64,79.03,18,80.37,18z M80.13,11.54    c0.97,0,1.52,0.55,1.65,1.65h-3.29C78.61,12.09,79.15,11.54,80.13,11.54z" fill="#000000"/>
		<path class="st0" d="M87.76,17.48c0.6,0.35,1.25,0.52,1.95,0.52c1.12,0,2.03-0.37,2.71-1.1s1.02-1.71,1.02-2.92    c0-1.08-0.34-1.99-1.02-2.74c-0.68-0.74-1.51-1.12-2.5-1.12c-0.81,0-1.53,0.27-2.17,0.82v-0.66h-2.38v11.36h2.38V17.48z     M87.76,12.42c0.51-0.41,1-0.61,1.48-0.61c0.57,0,1.01,0.2,1.32,0.6s0.47,0.96,0.47,1.69c0,0.71-0.17,1.27-0.51,1.68    c-0.34,0.41-0.8,0.62-1.38,0.62c-0.47,0-0.93-0.17-1.38-0.5V12.42z" fill="#000000"/>
		<path class="st0" d="M94.56,16.14c0,0.49,0.21,0.93,0.62,1.3c0.41,0.37,0.91,0.56,1.5,0.56c0.83,0,1.67-0.28,2.5-0.85    c0.14,0.57,0.58,0.85,1.33,0.85c0.7,0,1.44-0.23,2.23-0.69v-1.32c-0.4,0.28-0.7,0.43-0.9,0.43c-0.26,0-0.39-0.18-0.39-0.53v-3.46    c0-1.54-1.07-2.31-3.21-2.31c-1.19,0-2.29,0.31-3.28,0.92v1.94c0.85-0.85,1.78-1.27,2.79-1.27c0.93,0,1.37,0.42,1.32,1.27    c-2.15,0.64-3.44,1.16-3.86,1.56C94.77,14.95,94.56,15.48,94.56,16.14z M97.42,14.93c0.3-0.22,0.84-0.47,1.64-0.75v1.84    c-0.43,0.38-0.87,0.57-1.32,0.57c-0.21,0-0.4-0.08-0.55-0.24c-0.15-0.16-0.22-0.35-0.22-0.57C96.98,15.44,97.13,15.15,97.42,14.93    z" fill="#000000"/>
		<path class="st0" d="M106.17,14.57c0-0.11,0.19-0.51,0.57-1.19c0.38-0.68,0.84-1.02,1.39-1.02c0.35,0,0.82,0.19,1.41,0.56    l0.66-2.11c-0.62-0.46-1.14-0.69-1.58-0.69c-0.92,0-1.73,0.78-2.42,2.33h-0.03v-2.17h-2.38v7.58h2.38V14.57z" fill="#000000"/>
		<path class="st0" d="M111.72,15.16c0,0.93,0.26,1.64,0.77,2.12c0.51,0.48,1.24,0.72,2.17,0.72c0.71,0,1.45-0.16,2.21-0.47V15.8    c-0.57,0.29-1.1,0.44-1.6,0.44c-0.36,0-0.65-0.11-0.85-0.33c-0.21-0.22-0.31-0.51-0.31-0.89v-3.12h2.76v-1.63h-2.76V7.89h-0.3    l-3.17,3.55v0.47h1.08V15.16z" fill="#000000"/>
		<path class="st0" d="M120.52,12.77c0.59-0.7,1.2-1.05,1.82-1.05c0.44,0,0.79,0.14,1.06,0.43c0.27,0.28,0.4,0.69,0.4,1.22v4.49    h2.38V13c0.56-0.86,1.19-1.29,1.88-1.29c0.44,0,0.78,0.15,1.03,0.45c0.25,0.3,0.37,0.71,0.37,1.25v4.44h2.38v-4.87    c0-0.85-0.28-1.54-0.83-2.07c-0.55-0.53-1.26-0.79-2.14-0.79c-1.08,0-2.07,0.54-2.99,1.61c-0.52-1.08-1.43-1.61-2.73-1.61    c-0.95,0-1.83,0.38-2.63,1.13v-0.97h-2.38v7.58h2.38V12.77z" fill="#000000"/>
		<path class="st0" d="M137.85,18c1.34,0,2.47-0.33,3.38-1v-1.5c-0.98,0.72-1.92,1.08-2.81,1.08c-0.74,0-1.33-0.19-1.77-0.56    c-0.44-0.37-0.68-0.9-0.73-1.59h5.44c0.05-1.32-0.3-2.37-1.05-3.15c-0.75-0.78-1.7-1.18-2.87-1.18c-1.16,0-2.12,0.37-2.86,1.12    c-0.75,0.74-1.12,1.7-1.12,2.85c0,1.18,0.4,2.12,1.2,2.84C135.45,17.64,136.52,18,137.85,18z M137.62,11.54    c0.97,0,1.52,0.55,1.65,1.65h-3.29C136.09,12.09,136.64,11.54,137.62,11.54z" fill="#000000"/>
		<path class="st0" d="M145.29,12.97c0.55-0.83,1.1-1.25,1.66-1.25c0.79,0,1.18,0.51,1.18,1.52v4.62h2.38v-4.82    c0-0.94-0.26-1.66-0.79-2.16s-1.18-0.75-1.97-0.75c-0.94,0-1.76,0.41-2.46,1.24v-1.08h-2.38v7.58h2.38V12.97z" fill="#000000"/>
		<path class="st0" d="M152.78,15.16c0,0.93,0.26,1.64,0.77,2.12c0.51,0.48,1.24,0.72,2.17,0.72c0.71,0,1.45-0.16,2.21-0.47V15.8    c-0.57,0.29-1.11,0.44-1.6,0.44c-0.36,0-0.65-0.11-0.85-0.33s-0.31-0.51-0.31-0.89v-3.12h2.76v-1.63h-2.76V7.89h-0.3l-3.17,3.55    v0.47h1.08V15.16z" fill="#000000"/>
		<path class="st0" d="M167.63,18c1.16,0,2.16-0.34,3-1.03s1.26-1.65,1.26-2.9c0-1.24-0.41-2.21-1.24-2.91    c-0.83-0.7-1.83-1.04-3.02-1.04c-1.23,0-2.25,0.36-3.06,1.08c-0.82,0.72-1.22,1.67-1.22,2.86c0,1.17,0.4,2.12,1.2,2.85    S166.37,18,167.63,18z M166.35,12.19c0.31-0.43,0.73-0.65,1.28-0.65c1.14,0,1.71,0.82,1.71,2.47c0,1.72-0.57,2.58-1.71,2.58    c-1.16,0-1.74-0.84-1.74-2.53C165.89,13.24,166.04,12.62,166.35,12.19z" fill="#000000"/>
		<path class="st0" d="M173.83,17.85h2.38v-5.95h1.08v-1.63h-1.08V9.8c0-0.88,0.44-1.32,1.32-1.32c0.21,0,0.57,0.03,1.07,0.1V6.64    c-0.72-0.1-1.2-0.14-1.44-0.14c-1.02,0-1.82,0.3-2.42,0.9c-0.6,0.6-0.9,1.44-0.9,2.5v0.38h-1.08v1.63h1.08V17.85z" fill="#000000"/>
		<path class="st0" d="M192.71,16.36c1.13-0.99,1.69-2.36,1.69-4.1c0-1.66-0.55-3.01-1.66-4.06c-1.11-1.05-2.62-1.57-4.53-1.57    h-4.94v11.21h4.63C189.98,17.85,191.59,17.36,192.71,16.36z M186.05,15.8V8.7h1.79c1.19,0,2.1,0.32,2.73,0.95s0.95,1.5,0.95,2.6    c0,1.06-0.31,1.92-0.94,2.57c-0.63,0.65-1.53,0.98-2.71,0.98H186.05z" fill="#000000"/>
		<path class="st0" d="M200.2,18c1.34,0,2.47-0.33,3.38-1v-1.5c-0.98,0.72-1.92,1.08-2.81,1.08c-0.74,0-1.33-0.19-1.77-0.56    s-0.68-0.9-0.73-1.59h5.44c0.05-1.32-0.3-2.37-1.05-3.15c-0.75-0.78-1.7-1.18-2.87-1.18c-1.16,0-2.12,0.37-2.87,1.12    c-0.75,0.74-1.12,1.7-1.12,2.85c0,1.18,0.4,2.12,1.2,2.84C197.81,17.64,198.87,18,200.2,18z M199.97,11.54    c0.97,0,1.52,0.55,1.65,1.65h-3.29C198.44,12.09,198.99,11.54,199.97,11.54z" fill="#000000"/>
		<path class="st0" d="M205.6,17.85h2.38v-5.95h1.08v-1.63h-1.08V9.8c0-0.88,0.44-1.32,1.32-1.32c0.21,0,0.57,0.03,1.07,0.1V6.64    c-0.72-0.1-1.2-0.14-1.44-0.14c-1.02,0-1.82,0.3-2.42,0.9c-0.6,0.6-0.9,1.44-0.9,2.5v0.38h-1.08v1.63h1.08V17.85z" fill="#000000"/>
		<path class="st0" d="M210.88,16.93c0.8,0.71,1.86,1.07,3.19,1.07c1.34,0,2.47-0.33,3.38-1v-1.5c-0.98,0.72-1.92,1.08-2.81,1.08    c-0.74,0-1.33-0.19-1.77-0.56s-0.68-0.9-0.73-1.59h5.44c0.05-1.32-0.3-2.37-1.05-3.15c-0.75-0.78-1.7-1.18-2.87-1.18    c-1.16,0-2.12,0.37-2.87,1.12c-0.75,0.74-1.12,1.7-1.12,2.85C209.68,15.26,210.08,16.21,210.88,16.93z M213.84,11.54    c0.97,0,1.52,0.55,1.65,1.65h-3.29C212.31,12.09,212.86,11.54,213.84,11.54z" fill="#000000"/>
		<path class="st0" d="M221.51,12.97c0.55-0.83,1.1-1.25,1.66-1.25c0.79,0,1.18,0.51,1.18,1.52v4.62h2.38v-4.82    c0-0.94-0.26-1.66-0.79-2.16c-0.53-0.5-1.18-0.75-1.97-0.75c-0.94,0-1.76,0.41-2.46,1.24v-1.08h-2.38v7.58h2.38V12.97z" fill="#000000"/>
		<path class="st0" d="M230.45,14.77c0.81,0.32,1.29,0.54,1.43,0.67c0.14,0.13,0.21,0.26,0.21,0.41c0,0.37-0.39,0.56-1.16,0.56    c-0.66,0-1.47-0.21-2.45-0.64v1.68c0.79,0.37,1.7,0.55,2.71,0.55c0.99,0,1.75-0.21,2.29-0.64c0.54-0.43,0.8-1.04,0.8-1.82    c0-0.5-0.17-0.96-0.5-1.37c-0.33-0.42-0.9-0.79-1.7-1.11s-1.26-0.53-1.38-0.63c-0.12-0.1-0.18-0.2-0.18-0.3    c0-0.39,0.29-0.59,0.86-0.59c0.78,0,1.62,0.28,2.53,0.83v-1.69c-0.73-0.37-1.54-0.56-2.45-0.56c-0.94,0-1.7,0.22-2.28,0.65    c-0.58,0.43-0.86,1-0.86,1.69c0,0.47,0.15,0.89,0.45,1.27C229.08,14.1,229.64,14.45,230.45,14.77z" fill="#000000"/>
		<path class="st0" d="M239.73,18c1.34,0,2.47-0.33,3.38-1v-1.5c-0.98,0.72-1.92,1.08-2.81,1.08c-0.74,0-1.33-0.19-1.77-0.56    s-0.68-0.9-0.73-1.59h5.44c0.05-1.32-0.3-2.37-1.05-3.15c-0.75-0.78-1.7-1.18-2.87-1.18c-1.16,0-2.12,0.37-2.87,1.12    c-0.75,0.74-1.12,1.7-1.12,2.85c0,1.18,0.4,2.12,1.2,2.84C237.34,17.64,238.4,18,239.73,18z M239.5,11.54    c0.97,0,1.52,0.55,1.65,1.65h-3.29C237.97,12.09,238.52,11.54,239.5,11.54z" fill="#000000"/>
		<path class="st0" d="M50.46,48.29c0-6.63-2.25-12.12-6.7-16.31c-4.44-4.18-10.54-6.3-18.15-6.3H5.68v45.06h18.7    c8.29,0,14.77-2.01,19.27-5.98C48.17,60.78,50.46,55.24,50.46,48.29z M17.65,34.75h6.54c4.51,0,8.01,1.21,10.39,3.59    c2.38,2.38,3.59,5.71,3.59,9.89c0,4.03-1.2,7.32-3.55,9.77c-2.35,2.44-5.82,3.68-10.31,3.68h-6.67V34.75z" fill="#000000"/>
		<path class="st0" d="M81.24,67.15c3.41-2.78,5.13-6.75,5.13-11.78c0-5.01-1.7-8.99-5.05-11.81c-3.33-2.8-7.43-4.22-12.19-4.22    c-4.92,0-9.08,1.47-12.36,4.36c-3.3,2.9-4.98,6.81-4.98,11.61c0,4.71,1.64,8.6,4.88,11.56c3.22,2.95,7.42,4.44,12.46,4.44    C73.79,71.31,77.86,69.91,81.24,67.15z M64.5,48.26c1.12-1.58,2.64-2.35,4.63-2.35c4.19,0,6.23,3.01,6.23,9.21    c0,6.49-2.04,9.65-6.23,9.65c-4.27,0-6.35-3.09-6.35-9.46C62.78,52.25,63.36,49.88,64.5,48.26z" fill="#000000"/>
		<path class="st0" d="M133.54,48.29c0-6.63-2.25-12.12-6.7-16.31c-4.44-4.18-10.54-6.3-18.15-6.3H88.77v45.06h18.7    c8.29,0,14.77-2.01,19.27-5.98C131.25,60.78,133.54,55.24,133.54,48.29z M100.73,34.75h6.54c4.51,0,8.01,1.21,10.39,3.59    c2.38,2.38,3.59,5.71,3.59,9.89c0,4.03-1.2,7.32-3.55,9.77c-2.35,2.44-5.82,3.68-10.31,3.68h-6.67V34.75z" fill="#000000"/>
		<path class="st0" d="M149.35,35.11c1.09-0.62,2.59-0.93,4.47-0.93c3.38,0,8.02,1.31,13.77,3.9l0.7,0.31v-9.7l-0.3-0.13    c-5.27-2.29-10.36-3.45-15.12-3.45c-5.2,0-9.42,1.21-12.54,3.59c-3.16,2.41-4.77,5.63-4.77,9.56c0,3.02,0.74,5.54,2.2,7.49    c1.44,1.92,3.17,3.43,5.15,4.46c1.94,1.02,4.59,2.13,7.89,3.31c3.21,1.15,5.25,2.12,6.06,2.89c0.77,0.73,1.14,1.47,1.14,2.26    c0,0.88,0,3.57-5.97,3.57c-2.47,0-4.84-0.44-7.04-1.32c-2.23-0.89-4.83-2.32-7.73-4.27l-0.77-0.52v10.71l0.25,0.14    c5.18,2.87,10.61,4.32,16.14,4.32c5.16,0,9.38-1.26,12.56-3.73c3.21-2.51,4.84-5.92,4.84-10.14c0-2.96-0.75-5.44-2.23-7.4    c-1.46-1.92-3.22-3.43-5.23-4.49c-1.97-1.04-4.62-2.17-7.88-3.37c-3.19-1.17-5.2-2.13-5.99-2.84c-0.74-0.67-1.1-1.33-1.1-2.03    C147.85,36.4,148.34,35.68,149.35,35.11z" fill="#000000"/>
		<polygon class="st0" points="198.96,70.74 198.96,34.75 214.92,34.75 214.92,25.68 171.03,25.68 171.03,34.75 187,34.75     187,70.74   " fill="#000000"/>
		<polygon class="st0" points="250.55,34.75 250.55,25.68 217.52,25.68 217.52,70.74 251,70.74 251,61.68 229.48,61.68     229.48,52.06 249.58,52.06 249.58,43 229.48,43 229.48,34.75   " fill="#000000"/>
		<polygon class="st0" points="293.31,25.68 279.37,41.76 265.42,25.68 255.17,25.68 255.17,70.74 267.13,70.74 267.13,44.07     278.32,57.05 280.42,57.05 291.61,44.07 291.61,70.74 303.57,70.74 303.57,25.68   " fill="#000000"/>
		<path class="st0" d="M11.3,87.56c-0.44-0.23-1.03-0.49-1.77-0.76s-1.2-0.49-1.39-0.67c-0.19-0.17-0.29-0.35-0.29-0.54    c0-0.25,0.13-0.45,0.4-0.6c0.26-0.15,0.62-0.23,1.07-0.23c0.79,0,1.84,0.3,3.17,0.89v-1.95c-1.19-0.51-2.31-0.77-3.38-0.77    c-1.16,0-2.08,0.26-2.77,0.79c-0.69,0.53-1.04,1.22-1.04,2.08c0,0.66,0.16,1.21,0.48,1.63c0.32,0.42,0.69,0.75,1.13,0.98    c0.44,0.23,1.03,0.48,1.77,0.74c0.75,0.27,1.22,0.49,1.41,0.68c0.2,0.19,0.29,0.38,0.29,0.59c0,0.61-0.49,0.92-1.47,0.92    c-0.58,0-1.12-0.1-1.64-0.31c-0.52-0.21-1.11-0.53-1.77-0.98v2.15c1.16,0.64,2.36,0.97,3.6,0.97c1.15,0,2.07-0.27,2.78-0.82    s1.05-1.28,1.05-2.21c0-0.65-0.16-1.18-0.48-1.61C12.13,88.12,11.75,87.79,11.3,87.56z" fill="#000000"/>
		<path class="st0" d="M16.11,91.13c-0.37-0.37-0.56-0.85-0.56-1.44c0-0.59,0.19-1.06,0.57-1.42s0.89-0.53,1.52-0.53    c0.57,0,1.14,0.15,1.73,0.45v-1.58c-0.8-0.3-1.56-0.44-2.27-0.44c-1.11,0-2.02,0.33-2.74,1s-1.08,1.51-1.08,2.54    c0,1.05,0.35,1.89,1.06,2.53c0.71,0.64,1.66,0.96,2.85,0.96c0.69,0,1.45-0.15,2.28-0.45v-1.52c-0.82,0.31-1.45,0.46-1.9,0.46    C16.97,91.68,16.48,91.5,16.11,91.13z" fill="#000000"/>
		<path class="st0" d="M21.26,82.94c-0.32,0-0.59,0.11-0.82,0.34c-0.23,0.23-0.34,0.51-0.34,0.83c0,0.32,0.11,0.59,0.34,0.83    c0.23,0.23,0.5,0.35,0.82,0.35c0.32,0,0.6-0.12,0.83-0.35c0.23-0.23,0.34-0.51,0.34-0.83c0-0.32-0.11-0.6-0.34-0.83    C21.86,83.06,21.59,82.94,21.26,82.94z" fill="#000000"/>
		<rect x="20.21" y="86.31" class="st0" width="2.12" height="6.75" fill="#000000"/>
		<path class="st0" d="M29.18,87.21c-0.67-0.7-1.52-1.05-2.56-1.05c-1.03,0-1.89,0.33-2.55,0.99c-0.67,0.66-1,1.51-1,2.54    c0,1.05,0.35,1.89,1.06,2.53c0.71,0.64,1.66,0.96,2.85,0.96c1.2,0,2.2-0.3,3.01-0.89v-1.34c-0.87,0.64-1.71,0.96-2.5,0.96    c-0.66,0-1.18-0.17-1.57-0.5s-0.61-0.8-0.65-1.41h4.85C30.15,88.85,29.84,87.91,29.18,87.21z M25.31,88.91    c0.1-0.98,0.59-1.47,1.47-1.47c0.86,0,1.35,0.49,1.47,1.47H25.31z" fill="#000000"/>
		<path class="st0" d="M35.07,86.17c-0.84,0-1.57,0.37-2.19,1.1v-0.96h-2.12v6.75h2.12v-4.35c0.49-0.74,0.98-1.12,1.48-1.12    c0.7,0,1.05,0.45,1.05,1.35v4.12h2.12v-4.29c0-0.83-0.23-1.48-0.7-1.92C36.36,86.39,35.77,86.17,35.07,86.17z" fill="#000000"/>
		<path class="st0" d="M41.09,91.13c-0.37-0.37-0.56-0.85-0.56-1.44c0-0.59,0.19-1.06,0.57-1.42s0.89-0.53,1.52-0.53    c0.57,0,1.14,0.15,1.73,0.45v-1.58c-0.8-0.3-1.56-0.44-2.27-0.44c-1.11,0-2.02,0.33-2.74,1s-1.08,1.51-1.08,2.54    c0,1.05,0.35,1.89,1.06,2.53c0.71,0.64,1.66,0.96,2.85,0.96c0.69,0,1.45-0.15,2.28-0.45v-1.52c-0.82,0.31-1.45,0.46-1.9,0.46    C41.95,91.68,41.46,91.5,41.09,91.13z" fill="#000000"/>
		<path class="st0" d="M50.92,87.21c-0.67-0.7-1.52-1.05-2.56-1.05c-1.03,0-1.89,0.33-2.55,0.99c-0.67,0.66-1,1.51-1,2.54    c0,1.05,0.35,1.89,1.06,2.53c0.71,0.64,1.66,0.96,2.85,0.96c1.2,0,2.2-0.3,3.01-0.89v-1.34c-0.87,0.64-1.71,0.96-2.5,0.96    c-0.66,0-1.18-0.17-1.57-0.5s-0.61-0.8-0.65-1.41h4.85C51.89,88.85,51.58,87.91,50.92,87.21z M47.05,88.91    c0.1-0.98,0.59-1.47,1.47-1.47c0.86,0,1.35,0.49,1.47,1.47H47.05z" fill="#000000"/>
		<path class="st0" d="M56.92,86.73c-0.35,0-0.65,0.12-0.9,0.38c-0.25,0.25-0.38,0.55-0.38,0.9c0,0.35,0.12,0.65,0.38,0.9    c0.25,0.25,0.55,0.38,0.9,0.38c0.35,0,0.65-0.13,0.9-0.38c0.25-0.25,0.38-0.55,0.38-0.9c0-0.35-0.12-0.65-0.38-0.9    C57.57,86.86,57.27,86.73,56.92,86.73z" fill="#000000"/>
		<polygon class="st0" points="69.45,83.07 59.73,83.07 59.73,84.9 63.35,84.9 63.35,93.06 65.84,93.06 65.84,84.9 69.45,84.9   " fill="#000000"/>
		<path class="st0" d="M73.36,87.21c-0.67-0.7-1.52-1.05-2.56-1.05c-1.03,0-1.89,0.33-2.55,0.99c-0.67,0.66-1,1.51-1,2.54    c0,1.05,0.35,1.89,1.06,2.53c0.71,0.64,1.66,0.96,2.85,0.96c1.2,0,2.2-0.3,3.01-0.89v-1.34c-0.87,0.64-1.71,0.96-2.5,0.96    c-0.66,0-1.18-0.17-1.57-0.5s-0.61-0.8-0.65-1.41h4.85C74.33,88.85,74.02,87.91,73.36,87.21z M69.49,88.91    c0.1-0.98,0.59-1.47,1.47-1.47c0.86,0,1.35,0.49,1.47,1.47H69.49z" fill="#000000"/>
		<path class="st0" d="M77.46,91.13c-0.37-0.37-0.56-0.85-0.56-1.44c0-0.59,0.19-1.06,0.57-1.42s0.89-0.53,1.52-0.53    c0.57,0,1.14,0.15,1.73,0.45v-1.58c-0.8-0.3-1.56-0.44-2.27-0.44c-1.11,0-2.02,0.33-2.74,1s-1.08,1.51-1.08,2.54    c0,1.05,0.35,1.89,1.06,2.53c0.71,0.64,1.66,0.96,2.85,0.96c0.69,0,1.45-0.15,2.28-0.45v-1.52c-0.82,0.31-1.45,0.46-1.9,0.46    C78.32,91.68,77.83,91.5,77.46,91.13z" fill="#000000"/>
		<path class="st0" d="M85.84,86.17c-0.83,0-1.55,0.38-2.14,1.13h-0.03v-4.22h-2.12v9.99h2.12v-4.31c0.47-0.68,0.94-1.02,1.42-1.02    c0.73,0,1.09,0.49,1.09,1.47v3.86h2.12v-4.31c0-0.81-0.23-1.44-0.7-1.9C87.15,86.4,86.56,86.17,85.84,86.17z" fill="#000000"/>
		<path class="st0" d="M93.64,86.17c-0.84,0-1.57,0.37-2.19,1.1v-0.96h-2.12v6.75h2.12v-4.35c0.49-0.74,0.98-1.12,1.48-1.12    c0.7,0,1.05,0.45,1.05,1.35v4.12h2.12v-4.29c0-0.83-0.23-1.48-0.7-1.92C94.93,86.39,94.34,86.17,93.64,86.17z" fill="#000000"/>
		<path class="st0" d="M100.61,86.17c-1.09,0-2,0.32-2.73,0.96c-0.73,0.64-1.09,1.49-1.09,2.55c0,1.04,0.36,1.89,1.07,2.54    c0.71,0.65,1.63,0.98,2.75,0.98c1.03,0,1.93-0.31,2.67-0.92c0.75-0.61,1.12-1.47,1.12-2.58c0-1.11-0.37-1.97-1.1-2.59    C102.57,86.48,101.67,86.17,100.61,86.17z M100.61,91.93c-1.03,0-1.55-0.75-1.55-2.25c0-0.72,0.14-1.27,0.41-1.66    c0.27-0.39,0.65-0.58,1.14-0.58c1.02,0,1.52,0.73,1.52,2.2C102.13,91.16,101.63,91.93,100.61,91.93z" fill="#000000"/>
		<rect x="105.14" y="83.07" class="st0" width="2.12" height="9.99" fill="#000000"/>
		<path class="st0" d="M114.51,87.1c-0.74-0.62-1.63-0.93-2.69-0.93c-1.09,0-2,0.32-2.73,0.96c-0.73,0.64-1.09,1.49-1.09,2.55    c0,1.04,0.36,1.89,1.07,2.54c0.71,0.65,1.63,0.98,2.75,0.98c1.03,0,1.93-0.31,2.67-0.92c0.75-0.61,1.12-1.47,1.12-2.58    C115.61,88.58,115.24,87.72,114.51,87.1z M111.82,91.93c-1.03,0-1.55-0.75-1.55-2.25c0-0.72,0.14-1.27,0.41-1.66    c0.27-0.39,0.65-0.58,1.14-0.58c1.02,0,1.52,0.73,1.52,2.2C113.34,91.16,112.83,91.93,111.82,91.93z" fill="#000000"/>
		<path class="st0" d="M126.41,89.79l-1.43-3.48h-2.02h-0.25h-3.77c-0.98,0-1.73,0.25-2.24,0.74c-0.51,0.5-0.77,1.07-0.77,1.72    c0,0.53,0.18,0.98,0.54,1.37c0.36,0.38,0.81,0.62,1.36,0.71c-0.82,0.19-1.23,0.53-1.23,1.02c0,0.42,0.27,0.72,0.81,0.88    c-1.2,0.32-1.8,0.9-1.8,1.72c0,0.59,0.3,1.07,0.92,1.42c0.61,0.36,1.51,0.54,2.69,0.54c1.16,0,2.04-0.19,2.66-0.58    c0.61-0.39,0.92-0.95,0.92-1.69c0-0.46-0.18-0.89-0.54-1.3c-0.36-0.4-1-0.64-1.92-0.72c-0.92-0.08-1.44-0.15-1.58-0.23    s-0.2-0.17-0.2-0.29s0.05-0.22,0.15-0.29s0.54-0.15,1.3-0.24c0.76-0.08,1.34-0.35,1.73-0.79c0.39-0.44,0.59-0.93,0.59-1.45    c0-0.37-0.11-0.74-0.34-1.12h0.96v-0.9l2.39,5.12l-1.98,4.34h2.26l4.52-9.99h-2.23L126.41,89.79z M119.18,93.57    c1.1,0,1.65,0.25,1.65,0.74c0,0.23-0.14,0.43-0.42,0.6c-0.28,0.17-0.65,0.25-1.1,0.25c-1.16,0-1.74-0.26-1.74-0.79    c0-0.24,0.14-0.44,0.43-0.58C118.29,93.65,118.68,93.57,119.18,93.57z M119.99,89.63c-0.24,0.25-0.52,0.38-0.86,0.38    c-0.33,0-0.62-0.12-0.86-0.36c-0.24-0.24-0.36-0.53-0.36-0.85c0-0.34,0.12-0.63,0.35-0.87c0.23-0.24,0.53-0.36,0.87-0.36    c0.35,0,0.64,0.11,0.87,0.34c0.23,0.23,0.35,0.5,0.35,0.82C120.35,89.08,120.23,89.38,119.99,89.63z" fill="#000000"/>
		<path class="st0" d="M134.74,86.73c-0.35,0-0.65,0.12-0.9,0.38c-0.25,0.25-0.38,0.55-0.38,0.9c0,0.35,0.12,0.65,0.38,0.9    c0.25,0.25,0.55,0.38,0.9,0.38c0.35,0,0.65-0.13,0.9-0.38c0.25-0.25,0.38-0.55,0.38-0.9c0-0.35-0.12-0.65-0.38-0.9    C135.39,86.86,135.09,86.73,134.74,86.73z" fill="#000000"/>
		<polygon class="st0" points="142.97,88.83 147.52,88.83 147.52,87 142.97,87 142.97,84.9 147.75,84.9 147.75,83.07 140.48,83.07     140.48,93.06 147.85,93.06 147.85,91.23 142.97,91.23   " fill="#000000"/>
		<path class="st0" d="M153.1,86.17c-0.84,0-1.57,0.37-2.19,1.1v-0.96h-2.12v6.75h2.12v-4.35c0.49-0.74,0.98-1.12,1.48-1.12    c0.7,0,1.05,0.45,1.05,1.35v4.12h2.12v-4.29c0-0.83-0.23-1.48-0.7-1.92C154.38,86.39,153.8,86.17,153.1,86.17z" fill="#000000"/>
		<path class="st0" d="M157.21,87.05c-0.51,0.5-0.77,1.07-0.77,1.72c0,0.53,0.18,0.98,0.54,1.37c0.36,0.38,0.81,0.62,1.36,0.71    c-0.82,0.19-1.23,0.53-1.23,1.02c0,0.42,0.27,0.72,0.81,0.88c-1.2,0.32-1.8,0.9-1.8,1.72c0,0.59,0.3,1.07,0.92,1.42    c0.61,0.36,1.51,0.54,2.69,0.54c1.16,0,2.04-0.19,2.66-0.58s0.92-0.95,0.92-1.69c0-0.46-0.18-0.89-0.54-1.3    c-0.36-0.4-1-0.64-1.92-0.72c-0.92-0.08-1.44-0.15-1.58-0.23c-0.13-0.07-0.2-0.17-0.2-0.29s0.05-0.22,0.15-0.29    s0.54-0.15,1.3-0.24c0.76-0.08,1.34-0.35,1.73-0.79c0.39-0.44,0.59-0.93,0.59-1.45c0-0.37-0.11-0.74-0.34-1.12h0.96v-1.42h-4.01    C158.47,86.31,157.72,86.56,157.21,87.05z M159.69,93.57c1.1,0,1.65,0.25,1.65,0.74c0,0.23-0.14,0.43-0.42,0.6    c-0.28,0.17-0.65,0.25-1.1,0.25c-1.16,0-1.74-0.26-1.74-0.79c0-0.24,0.14-0.44,0.43-0.58S159.19,93.57,159.69,93.57z M160.5,87.91    c0.23,0.23,0.35,0.5,0.35,0.82c0,0.35-0.12,0.66-0.36,0.91c-0.24,0.25-0.52,0.38-0.86,0.38c-0.33,0-0.62-0.12-0.86-0.36    c-0.24-0.24-0.36-0.53-0.36-0.85c0-0.34,0.12-0.63,0.35-0.87s0.53-0.36,0.87-0.36C159.99,87.57,160.27,87.68,160.5,87.91z" fill="#000000"/>
		<path class="st0" d="M164.88,82.94c-0.32,0-0.59,0.11-0.82,0.34c-0.23,0.23-0.34,0.51-0.34,0.83c0,0.32,0.11,0.59,0.34,0.83    c0.23,0.23,0.5,0.35,0.82,0.35c0.32,0,0.6-0.12,0.83-0.35c0.23-0.23,0.34-0.51,0.34-0.83c0-0.32-0.11-0.6-0.34-0.83    C165.48,83.06,165.2,82.94,164.88,82.94z" fill="#000000"/>
		<rect x="163.83" y="86.31" class="st0" width="2.12" height="6.75" fill="#000000"/>
		<path class="st0" d="M171.34,86.17c-0.84,0-1.57,0.37-2.19,1.1v-0.96h-2.12v6.75h2.12v-4.35c0.49-0.74,0.98-1.12,1.48-1.12    c0.7,0,1.05,0.45,1.05,1.35v4.12h2.12v-4.29c0-0.83-0.23-1.48-0.7-1.92C172.63,86.39,172.04,86.17,171.34,86.17z" fill="#000000"/>
		<path class="st0" d="M180.6,87.21c-0.67-0.7-1.52-1.05-2.56-1.05c-1.03,0-1.88,0.33-2.55,0.99c-0.67,0.66-1,1.51-1,2.54    c0,1.05,0.35,1.89,1.06,2.53c0.71,0.64,1.66,0.96,2.85,0.96c1.2,0,2.2-0.3,3.01-0.89v-1.34c-0.87,0.64-1.71,0.96-2.5,0.96    c-0.66,0-1.18-0.17-1.57-0.5s-0.61-0.8-0.65-1.41h4.85C181.58,88.85,181.26,87.91,180.6,87.21z M176.73,88.91    c0.1-0.98,0.59-1.47,1.47-1.47c0.86,0,1.35,0.49,1.47,1.47H176.73z" fill="#000000"/>
		<path class="st0" d="M187.95,87.21c-0.67-0.7-1.52-1.05-2.56-1.05c-1.03,0-1.88,0.33-2.55,0.99c-0.67,0.66-1,1.51-1,2.54    c0,1.05,0.35,1.89,1.06,2.53c0.71,0.64,1.66,0.96,2.85,0.96c1.2,0,2.2-0.3,3.01-0.89v-1.34c-0.87,0.64-1.71,0.96-2.5,0.96    c-0.66,0-1.18-0.17-1.57-0.5s-0.61-0.8-0.65-1.41h4.85C188.92,88.85,188.61,87.91,187.95,87.21z M184.07,88.91    c0.1-0.98,0.59-1.47,1.47-1.47c0.86,0,1.35,0.49,1.47,1.47H184.07z" fill="#000000"/>
		<path class="st0" d="M191.73,88.24h-0.03v-1.93h-2.12v6.75h2.12v-2.92c0-0.1,0.17-0.46,0.5-1.06s0.75-0.91,1.24-0.91    c0.31,0,0.73,0.17,1.26,0.5l0.59-1.88c-0.55-0.41-1.02-0.61-1.41-0.61C193.06,86.17,192.34,86.86,191.73,88.24z" fill="#000000"/>
		<rect x="195.39" y="86.31" class="st0" width="2.12" height="6.75" fill="#000000"/>
		<path class="st0" d="M196.44,82.94c-0.32,0-0.59,0.11-0.82,0.34c-0.23,0.23-0.34,0.51-0.34,0.83c0,0.32,0.11,0.59,0.34,0.83    c0.23,0.23,0.5,0.35,0.82,0.35c0.32,0,0.6-0.12,0.83-0.35c0.23-0.23,0.34-0.51,0.34-0.83c0-0.32-0.11-0.6-0.34-0.83    C197.04,83.06,196.77,82.94,196.44,82.94z" fill="#000000"/>
		<path class="st0" d="M202.9,86.17c-0.84,0-1.57,0.37-2.19,1.1v-0.96h-2.12v6.75h2.12v-4.35c0.49-0.74,0.98-1.12,1.48-1.12    c0.7,0,1.05,0.45,1.05,1.35v4.12h2.12v-4.29c0-0.83-0.24-1.48-0.7-1.92C204.19,86.39,203.6,86.17,202.9,86.17z" fill="#000000"/>
		<path class="st0" d="M207.01,87.05c-0.51,0.5-0.77,1.07-0.77,1.72c0,0.53,0.18,0.98,0.54,1.37c0.36,0.38,0.81,0.62,1.36,0.71    c-0.82,0.19-1.23,0.53-1.23,1.02c0,0.42,0.27,0.72,0.81,0.88c-1.2,0.32-1.8,0.9-1.8,1.72c0,0.59,0.31,1.07,0.92,1.42    c0.61,0.36,1.51,0.54,2.69,0.54c1.16,0,2.04-0.19,2.66-0.58s0.92-0.95,0.92-1.69c0-0.46-0.18-0.89-0.54-1.3    c-0.36-0.4-1-0.64-1.92-0.72c-0.92-0.08-1.44-0.15-1.58-0.23c-0.13-0.07-0.2-0.17-0.2-0.29s0.05-0.22,0.15-0.29    s0.54-0.15,1.3-0.24c0.77-0.08,1.34-0.35,1.73-0.79c0.39-0.44,0.59-0.93,0.59-1.45c0-0.37-0.11-0.74-0.34-1.12h0.96v-1.42h-4.01    C208.28,86.31,207.53,86.56,207.01,87.05z M209.49,93.57c1.1,0,1.65,0.25,1.65,0.74c0,0.23-0.14,0.43-0.42,0.6    c-0.28,0.17-0.65,0.25-1.1,0.25c-1.16,0-1.74-0.26-1.74-0.79c0-0.24,0.14-0.44,0.43-0.58S208.99,93.57,209.49,93.57z     M210.31,87.91c0.23,0.23,0.35,0.5,0.35,0.82c0,0.35-0.12,0.66-0.36,0.91c-0.24,0.25-0.52,0.38-0.86,0.38s-0.62-0.12-0.86-0.36    c-0.24-0.24-0.36-0.53-0.36-0.85c0-0.34,0.12-0.63,0.35-0.87s0.53-0.36,0.87-0.36S210.08,87.68,210.31,87.91z" fill="#000000"/>
		<path class="st0" d="M218.02,86.73c-0.35,0-0.65,0.12-0.9,0.38c-0.25,0.25-0.38,0.55-0.38,0.9c0,0.35,0.13,0.65,0.38,0.9    s0.55,0.38,0.9,0.38c0.35,0,0.65-0.13,0.9-0.38c0.25-0.25,0.38-0.55,0.38-0.9c0-0.35-0.12-0.65-0.38-0.9    C218.68,86.86,218.38,86.73,218.02,86.73z" fill="#000000"/>
		<polygon class="st0" points="229.11,86.77 225.9,83.07 223.74,83.07 223.74,93.06 226.22,93.06 226.22,86.82 228.92,89.96     229.3,89.96 231.99,86.82 231.99,93.06 234.48,93.06 234.48,83.07 232.32,83.07   " fill="#000000"/>
		<path class="st0" d="M241.46,91.3v-3.08c0-1.37-0.95-2.05-2.86-2.05c-1.06,0-2.04,0.27-2.92,0.82v1.73    c0.76-0.75,1.59-1.13,2.49-1.13c0.83,0,1.22,0.38,1.17,1.13c-1.92,0.57-3.06,1.03-3.44,1.39c-0.38,0.36-0.57,0.83-0.57,1.42    c0,0.44,0.18,0.82,0.55,1.16c0.37,0.33,0.81,0.5,1.34,0.5c0.74,0,1.48-0.25,2.22-0.76c0.12,0.5,0.52,0.76,1.19,0.76    c0.62,0,1.28-0.21,1.99-0.62v-1.18c-0.36,0.25-0.62,0.38-0.8,0.38C241.58,91.77,241.46,91.61,241.46,91.3z M239.34,91.42    c-0.38,0.34-0.77,0.51-1.17,0.51c-0.19,0-0.35-0.07-0.49-0.21c-0.13-0.14-0.2-0.31-0.2-0.51c0-0.31,0.13-0.56,0.4-0.76    s0.75-0.42,1.46-0.67V91.42z" fill="#000000"/>
		<path class="st0" d="M245.15,84.19h-0.26l-2.82,3.16v0.41h0.96v2.9c0,0.83,0.23,1.46,0.69,1.89c0.46,0.43,1.1,0.64,1.93,0.64    c0.63,0,1.29-0.14,1.97-0.42v-1.54c-0.51,0.26-0.98,0.39-1.42,0.39c-0.32,0-0.58-0.1-0.76-0.29c-0.18-0.19-0.27-0.46-0.27-0.79    v-2.78h2.46v-1.45h-2.46V84.19z" fill="#000000"/>
		<path class="st0" d="M252.29,86.17c-0.83,0-1.55,0.38-2.14,1.13h-0.03v-4.22H248v9.99h2.12v-4.31c0.47-0.68,0.94-1.02,1.42-1.02    c0.73,0,1.09,0.49,1.09,1.47v3.86h2.12v-4.31c0-0.81-0.23-1.44-0.7-1.9C253.6,86.4,253.01,86.17,252.29,86.17z" fill="#000000"/>
		<path class="st0" d="M261.55,87.21c-0.67-0.7-1.52-1.05-2.56-1.05c-1.03,0-1.88,0.33-2.55,0.99c-0.67,0.66-1,1.51-1,2.54    c0,1.05,0.36,1.89,1.07,2.53c0.71,0.64,1.66,0.96,2.85,0.96c1.2,0,2.2-0.3,3.01-0.89v-1.34c-0.87,0.64-1.71,0.96-2.5,0.96    c-0.66,0-1.18-0.17-1.57-0.5s-0.61-0.8-0.65-1.41h4.85C262.52,88.85,262.21,87.91,261.55,87.21z M257.68,88.91    c0.1-0.98,0.59-1.47,1.47-1.47c0.86,0,1.35,0.49,1.46,1.47H257.68z" fill="#000000"/>
		<path class="st0" d="M272.73,86.17c-0.96,0-1.85,0.48-2.66,1.44c-0.46-0.96-1.27-1.44-2.43-1.44c-0.84,0-1.63,0.34-2.35,1.01    v-0.87h-2.12v6.75h2.12v-4.53c0.52-0.62,1.06-0.94,1.62-0.94c0.39,0,0.7,0.13,0.94,0.38c0.24,0.25,0.35,0.62,0.35,1.09v4h2.12    v-4.32c0.5-0.76,1.06-1.14,1.68-1.14c0.39,0,0.7,0.13,0.92,0.4c0.22,0.27,0.33,0.64,0.33,1.11v3.96h2.12v-4.34    c0-0.76-0.25-1.37-0.74-1.85C274.14,86.4,273.51,86.17,272.73,86.17z" fill="#000000"/>
		<path class="st0" d="M282.16,91.3v-3.08c0-1.37-0.95-2.05-2.86-2.05c-1.06,0-2.04,0.27-2.92,0.82v1.73    c0.76-0.75,1.59-1.13,2.49-1.13c0.83,0,1.22,0.38,1.17,1.13c-1.92,0.57-3.06,1.03-3.44,1.39c-0.38,0.36-0.57,0.83-0.57,1.42    c0,0.44,0.18,0.82,0.55,1.16c0.37,0.33,0.81,0.5,1.34,0.5c0.74,0,1.48-0.25,2.22-0.76c0.12,0.5,0.52,0.76,1.19,0.76    c0.62,0,1.28-0.21,1.99-0.62v-1.18c-0.36,0.25-0.62,0.38-0.8,0.38C282.27,91.77,282.16,91.61,282.16,91.3z M280.03,91.42    c-0.38,0.34-0.77,0.51-1.17,0.51c-0.19,0-0.35-0.07-0.49-0.21c-0.13-0.14-0.2-0.31-0.2-0.51c0-0.31,0.13-0.56,0.4-0.76    s0.75-0.42,1.46-0.67V91.42z" fill="#000000"/>
		<path class="st0" d="M285.84,84.19h-0.26l-2.82,3.16v0.41h0.96v2.9c0,0.83,0.23,1.46,0.69,1.89c0.46,0.43,1.1,0.64,1.93,0.64    c0.63,0,1.29-0.14,1.97-0.42v-1.54c-0.51,0.26-0.98,0.39-1.42,0.39c-0.32,0-0.58-0.1-0.76-0.29c-0.18-0.19-0.27-0.46-0.27-0.79    v-2.78h2.46v-1.45h-2.46V84.19z" fill="#000000"/>
		<rect x="288.71" y="86.31" class="st0" width="2.12" height="6.75" fill="#000000"/>
		<path class="st0" d="M289.76,82.94c-0.32,0-0.59,0.11-0.82,0.34c-0.23,0.23-0.34,0.51-0.34,0.83c0,0.32,0.11,0.59,0.34,0.83    c0.23,0.23,0.5,0.35,0.82,0.35c0.32,0,0.6-0.12,0.83-0.35c0.23-0.23,0.34-0.51,0.34-0.83c0-0.32-0.11-0.6-0.34-0.83    C290.36,83.06,290.08,82.94,289.76,82.94z" fill="#000000"/>
		<path class="st0" d="M294.43,91.13c-0.37-0.37-0.56-0.85-0.56-1.44c0-0.59,0.19-1.06,0.57-1.42c0.38-0.35,0.89-0.53,1.52-0.53    c0.57,0,1.14,0.15,1.73,0.45v-1.58c-0.8-0.3-1.56-0.44-2.27-0.44c-1.11,0-2.02,0.33-2.74,1s-1.08,1.51-1.08,2.54    c0,1.05,0.36,1.89,1.07,2.53c0.71,0.64,1.66,0.96,2.85,0.96c0.69,0,1.45-0.15,2.28-0.45v-1.52c-0.82,0.31-1.45,0.46-1.9,0.46    C295.29,91.68,294.8,91.5,294.43,91.13z" fill="#000000"/>
		<path class="st0" d="M301.51,88.78c-0.71-0.28-1.12-0.47-1.23-0.56c-0.11-0.09-0.16-0.18-0.16-0.27c0-0.35,0.25-0.52,0.77-0.52    c0.69,0,1.44,0.25,2.25,0.74v-1.51c-0.65-0.33-1.38-0.5-2.18-0.5c-0.84,0-1.51,0.19-2.03,0.58c-0.51,0.39-0.77,0.89-0.77,1.5    c0,0.42,0.13,0.79,0.4,1.13c0.27,0.34,0.76,0.65,1.49,0.93c0.72,0.28,1.15,0.48,1.28,0.6s0.19,0.24,0.19,0.36    c0,0.33-0.34,0.5-1.03,0.5c-0.59,0-1.31-0.19-2.18-0.57v1.49c0.71,0.33,1.51,0.49,2.42,0.49c0.88,0,1.56-0.19,2.04-0.57    c0.48-0.38,0.71-0.92,0.71-1.62c0-0.44-0.15-0.85-0.44-1.22C302.73,89.4,302.22,89.07,301.51,88.78z" fill="#000000"/>
		<rect x="250.7" y="13.5" class="st0" width="52.67" height="2" fill="#000000"/>
		<rect x="5.37" y="13.5" class="st0" width="52.67" height="2" fill="#000000"/>
		<rect x="5.37" y="76.84" class="st0" width="298" height="2" fill="#000000"/>
	</g>
</g>
</svg>